HIERARCHY
ROOT Hips
{
 OFFSET 0.000000 0.000000 0.000000
 CHANNELS 6 Xposition Yposition Zposition Yrotation Xrotation Zrotation
 JOINT Chest
 {
  OFFSET 0.000000 9.585900 0.002600
  CHANNELS 3 Yrotation Xrotation Zrotation
  JOINT Chest2
  {
   OFFSET 0.000000 9.601200 -0.005300
   CHANNELS 3 Yrotation Xrotation Zrotation
   JOINT Chest3
   {
    OFFSET 0.000000 9.561800 0.000000
    CHANNELS 3 Yrotation Xrotation Zrotation
    JOINT Chest4
    {
     OFFSET 0.000000 9.552100 0.000000
     CHANNELS 3 Yrotation Xrotation Zrotation
     JOINT Neck
     {
      OFFSET 0.000000 14.453000 0.000000
      CHANNELS 3 Yrotation Xrotation Zrotation
      JOINT Head
      {
       OFFSET 0.000000 8.936500 -0.011300
       CHANNELS 3 Yrotation Xrotation Zrotation
       End Site
       {
        OFFSET 0.000000 17.073600 -0.006000
       }
      }
     }
     JOINT RightCollar
     {
      OFFSET -2.921100 9.558500 0.000000
      CHANNELS 3 Yrotation Xrotation Zrotation
      JOINT RightShoulder
      {
       OFFSET -13.519700 0.000000 0.000000
       CHANNELS 3 Yrotation Xrotation Zrotation
       JOINT RightElbow
       {
        OFFSET 0.000000 -29.696600 0.000000
        CHANNELS 3 Yrotation Xrotation Zrotation
        JOINT RightWrist
        {
         OFFSET 0.000000 -24.004700 0.000000
         CHANNELS 3 Yrotation Xrotation Zrotation
         End Site
         {
          OFFSET 0.000000 -17.728500 0.000000
         }
        }
       }
      }
     }
     JOINT LeftCollar
     {
      OFFSET 2.921100 9.558500 0.000000
      CHANNELS 3 Yrotation Xrotation Zrotation
      JOINT LeftShoulder
      {
       OFFSET 13.519700 0.000000 0.000000
       CHANNELS 3 Yrotation Xrotation Zrotation
       JOINT LeftElbow
       {
        OFFSET 0.000000 -29.696600 0.000000
        CHANNELS 3 Yrotation Xrotation Zrotation
        JOINT LeftWrist
        {
         OFFSET 0.000000 -24.004700 0.000000
         CHANNELS 3 Yrotation Xrotation Zrotation
         End Site
         {
          OFFSET 0.000000 -17.728500 0.000000
         }
        }
       }
      }
     }
    }
   }
  }
 }
 JOINT RightHip
 {
  OFFSET -7.771700 -0.012900 -0.001300
  CHANNELS 3 Yrotation Xrotation Zrotation
  JOINT RightKnee
  {
   OFFSET 0.000000 -40.869800 0.001200
   CHANNELS 3 Yrotation Xrotation Zrotation
   JOINT RightAnkle
   {
    OFFSET 0.000000 -39.717900 0.002100
    CHANNELS 3 Yrotation Xrotation Zrotation
    JOINT RightToe
    {
     OFFSET 0.000000 -4.965400 11.033500
     CHANNELS 3 Yrotation Xrotation Zrotation
     End Site
     {
      OFFSET 0.000000 -1.423100 5.872300
     }
    }
   }
  }
 }
 JOINT LeftHip
 {
  OFFSET 7.771700 -0.012900 -0.001300
  CHANNELS 3 Yrotation Xrotation Zrotation
  JOINT LeftKnee
  {
   OFFSET 0.000000 -40.869800 0.001200
   CHANNELS 3 Yrotation Xrotation Zrotation
   JOINT LeftAnkle
   {
    OFFSET 0.000000 -39.717900 0.002100
    CHANNELS 3 Yrotation Xrotation Zrotation
    JOINT LeftToe
    {
     OFFSET 0.000000 -4.965400 11.033500
     CHANNELS 3 Yrotation Xrotation Zrotation
     End Site
     {
      OFFSET 0.000000 -1.423100 5.872300
     }
    }
   }
  }
 }
}
MOTION
Frames: 7
Frame Time: 0.008333
0.000000 85.388000 0.000000 0.000000 -5.767877 0.000000 0.000000 11.653817 0.000000 0.000000 -5.885947 0.000000 0.000000 -0.000000 0.000000 0.000000 -0.000000 0.000000 0.000000 12.528835 0.000000 0.000000 0.711642 0.000000 0.000000 -0.000000 0.000000 0.000000 0.000000 -90.000000 0.000000 -2.309062 0.000000 0.000000 2.309062 0.000000 0.000000 -0.000000 0.000000 0.000000 -0.000000 90.000000 0.000000 -2.309062 0.000000 0.000000 2.309062 0.000000 0.000000 8.520406 0.000000 0.000000 1.905762 0.000000 -0.000000 -4.658285 0.000000 0.000000 -0.000000 0.000000 0.000000 8.520406 0.000000 0.000000 1.905762 0.000000 -0.000000 -4.658285 0.000000 0.000000 -0.000000 0.000000
-104.246110 57.387224 96.508029 177.195757 -34.927776 -1.268399 2.720584 22.174862 3.132251 0.267069 3.082219 0.386357 0.444285 5.000245 0.634857 1.975965 18.722207 2.650020 0.027211 15.291828 -1.410476 0.512058 -7.271490 -2.613515 -3.366221 0.686422 -0.768335 -2.204553 -6.638636 -7.890278 167.050977 -64.095830 -151.756909 12.069977 -13.712763 -47.920951 2.965770 4.218259 4.042910 24.785163 1.982094 1.690896 155.736485 -65.842714 -174.463291 -1.121734 -12.650268 28.426757 12.694496 -40.966126 -6.181495 -10.795196 68.264549 -11.016560 8.535149 23.768850 8.796394 -1.016593 -16.936546 3.198448 -8.872873 -38.025155 4.181129 24.847193 64.622434 19.843457 -17.136926 7.084682 -3.602115 0.884081 0.488638 0.425587
-104.253643 57.379213 96.510263 177.247137 -34.953831 -1.264408 2.694752 22.165399 3.113425 0.275570 3.068159 0.386698 0.441755 4.995471 0.634366 1.971911 18.714559 2.653468 -0.011477 15.265808 -1.433759 0.457733 -7.320834 -2.638237 -3.386523 0.750103 -0.820075 -2.192956 -6.705837 -7.871581 166.752393 -63.776473 -151.764358 12.048707 -13.658357 -47.842615 3.175766 4.372230 4.177984 25.019749 2.164965 1.671658 155.989131 -65.565713 -174.793065 -1.150872 -12.595512 28.330118 12.729790 -40.939047 -6.214768 -10.790062 68.278912 -11.063566 8.561037 23.768233 8.876762 -1.051266 -16.954081 3.214924 -8.940798 -38.006990 4.188598 24.928552 64.616025 19.859810 -17.175006 7.097116 -3.602958 0.904978 0.481155 0.427925
-104.256614 57.369117 96.513811 177.295087 -34.974330 -1.292929 2.665682 22.173946 3.120322 0.303338 3.032212 0.386453 0.421928 5.016385 0.635819 2.004923 18.619202 2.639249 -0.068337 15.296806 -1.439415 0.402328 -7.376729 -2.663342 -3.446832 0.879661 -0.858439 -2.176520 -6.758075 -7.850399 166.439217 -63.461897 -151.769130 12.034536 -13.607623 -47.763523 3.389544 4.593624 4.356746 25.259877 2.373066 1.672256 156.244651 -65.291854 -175.148329 -1.178834 -12.536105 28.218139 12.860573 -40.929303 -6.253905 -11.006622 68.296835 -11.250978 8.554111 23.797863 8.918599 -1.047249 -16.992966 3.258763 -9.076464 -38.003367 4.273477 25.023554 64.641215 19.861927 -17.193859 7.116695 -3.600864 0.908802 0.460247 0.431268
-104.263630 57.357507 96.517363 177.325744 -34.990920 -1.294958 2.675449 22.145954 3.122541 0.301367 3.029291 0.380273 0.401616 5.037067 0.640929 2.017091 18.584663 2.625331 -0.104327 15.263374 -1.459023 0.343010 -7.439219 -2.687265 -3.499673 0.948324 -0.902786 -2.210071 -6.752302 -7.843392 166.203569 -63.116773 -151.830712 12.022155 -13.561509 -47.689624 3.646211 4.758167 4.540119 25.499828 2.604780 1.697346 156.505549 -65.020983 -175.518703 -1.206925 -12.470619 28.096021 12.957238 -40.919049 -6.297008 -11.129302 68.312823 -11.377090 8.562719 23.801432 8.965766 -1.046191 -17.008299 3.288890 -9.119489 -37.997623 4.279547 25.068846 64.646395 19.879393 -17.193269 7.107489 -3.611464 0.896622 0.470147 0.439356
-104.273736 57.345941 96.519197 177.355746 -35.012493 -1.284869 2.677813 22.124699 3.104578 0.294990 3.037112 0.379556 0.406736 5.018831 0.639047 2.011726 18.591837 2.623516 -0.135702 15.212104 -1.489272 0.278259 -7.510336 -2.710025 -3.558428 1.002172 -0.952890 -2.298281 -6.688658 -7.794686 165.948322 -62.731700 -151.836995 12.011206 -13.521715 -47.630905 3.921574 4.910265 4.731073 25.739497 2.855677 1.746783 156.770624 -64.756123 -175.894653 -1.235973 -12.398912 27.970629 13.026612 -40.899306 -6.340867 -11.198148 68.329058 -11.468579 8.571466 23.789471 9.009497 -1.046788 -17.011064 3.315862 -9.130093 -37.984470 4.252363 25.084833 64.644752 19.882390 -17.184985 7.096862 -3.608187 0.893063 0.480504 0.433807
-104.285077 57.335328 96.518727 177.414976 -35.041002 -1.289265 2.695123 22.080717 3.088244 0.231467 3.096453 0.392954 0.438153 4.978865 0.630290 2.015034 18.587231 2.612819 -0.176529 15.168127 -1.508383 0.209930 -7.592558 -2.731275 -3.636795 1.070395 -0.993508 -2.448430 -6.590097 -7.710354 165.726809 -62.328958 -151.826830 12.003250 -13.484123 -47.591293 4.193657 5.070108 4.947190 25.977509 3.123189 1.821639 157.040861 -64.497074 -176.269563 -1.265061 -12.327087 27.852191 13.032452 -40.869603 -6.373586 -11.196744 68.348417 -11.507849 8.593150 23.771528 9.038191 -1.059156 -17.014852 3.352593 -9.179868 -37.973128 4.233645 25.102995 64.657754 19.869372 -17.162071 7.109539 -3.591576 0.871460 0.467527 0.422617
